<svg width="60" height="60" viewBox="0 0 60 60" fill="none" xmlns="http://www.w3.org/2000/svg">
<g clip-path="url(#clip0_331_10)">
<path fill-rule="evenodd" clip-rule="evenodd" d="M50 15H10C8.67392 15 7.40215 15.5268 6.46447 16.4645C5.52678 17.4021 5 18.6739 5 20V40C5 41.3261 5.52678 42.5979 6.46447 43.5355C7.40215 44.4732 8.67392 45 10 45H50C51.3261 45 52.5979 44.4732 53.5355 43.5355C54.4732 42.5979 55 41.3261 55 40V20C55 18.6739 54.4732 17.4021 53.5355 16.4645C52.5979 15.5268 51.3261 15 50 15ZM23.225 37L22.5 34.325H17.9L17.175 37H12.925L17.5 22.675H22.725L27.5 37H23.225ZM39.075 29.15C38.8951 29.7425 38.588 30.2886 38.175 30.75C37.7054 31.2366 37.1331 31.6124 36.5 31.85C35.7002 32.1455 34.8525 32.2896 34 32.275H32.9V37H29V22.725H34C35.447 22.6205 36.8836 23.0373 38.05 23.9C38.5194 24.322 38.887 24.845 39.1252 25.4296C39.3634 26.0141 39.4659 26.6451 39.425 27.275C39.4108 27.9148 39.2926 28.5481 39.075 29.15ZM45.525 37H41.65V22.725H45.525V37ZM21.125 28.825L21.725 31.15H18.7L19.3 28.825C19.3 28.5 19.5 28.125 19.6 27.65C19.7 27.175 19.825 26.7 19.925 26.225C20.0295 25.8297 20.1129 25.4291 20.175 25.025C20.175 25.35 20.35 25.75 20.45 26.275L20.825 27.725L21.125 28.825ZM35.1 26.325C35.2375 26.4667 35.3441 26.6354 35.4129 26.8205C35.4818 27.0055 35.5114 27.2029 35.5 27.4C35.5139 27.7695 35.4182 28.1348 35.225 28.45C35.0605 28.6971 34.8252 28.8888 34.55 29C34.2575 29.1229 33.9422 29.1825 33.625 29.175H32.85V25.85H33.85C34.0604 25.8404 34.2705 25.873 34.4681 25.946C34.6656 26.019 34.8465 26.1309 35 26.275L35.1 26.325Z" fill="white"/>
</g>
<defs>
<clipPath id="clip0_331_10">
<rect width="60" height="60" fill="white"/>
</clipPath>
</defs>
</svg>
