<svg width="29" height="29" viewBox="0 0 29 29" fill="none" xmlns="http://www.w3.org/2000/svg">
<path fill-rule="evenodd" clip-rule="evenodd" d="M6.0234 2.41699C4.36868 2.41699 3.14429 3.86528 3.1991 5.43594C3.25169 6.94492 3.18337 8.89923 2.69135 10.493C2.19786 12.0914 1.36324 13.104 0 13.234V14.7016C1.36324 14.8317 2.19786 15.8442 2.69135 17.4427C3.18337 19.0364 3.25169 20.9908 3.1991 22.4997C3.14429 24.0702 4.36868 25.5186 6.02364 25.5186H22.9788C24.6336 25.5186 25.8577 24.0704 25.8029 22.4997C25.7503 20.9908 25.8186 19.0364 26.3106 17.4427C26.8043 15.8442 27.6368 14.8317 29 14.7016V13.234C27.6368 13.104 26.8043 12.0914 26.3106 10.493C25.8186 8.89947 25.7503 6.94492 25.8029 5.43594C25.8577 3.86552 24.6336 2.41699 22.9788 2.41699H6.0234ZM19.661 16.6375C19.661 18.8003 18.0478 20.1119 15.3707 20.1119H10.8136C10.6832 20.1119 10.5582 20.0601 10.466 19.9679C10.3738 19.8757 10.322 19.7508 10.322 19.6204V8.3153C10.322 8.18494 10.3738 8.05992 10.466 7.96774C10.5582 7.87555 10.6832 7.82378 10.8136 7.82378H15.3447C17.5769 7.82378 19.0419 9.03292 19.0419 10.8894C19.0419 12.1924 18.0565 13.3591 16.8008 13.5633V13.6314C18.5101 13.8189 19.661 15.0025 19.661 16.6375ZM14.8739 9.38191H12.2753V13.0521H14.4639C16.1557 13.0521 17.0886 12.3709 17.0886 11.1531C17.0886 10.012 16.2864 9.38191 14.8739 9.38191ZM12.2753 14.5085V18.5533H14.9694C16.7308 18.5533 17.6639 17.8464 17.6639 16.5181C17.6639 15.1896 16.7047 14.5083 14.8561 14.5083L12.2753 14.5085Z" fill="white"/>
</svg>
