<svg width="29" height="29" viewBox="0 0 29 29" fill="none" xmlns="http://www.w3.org/2000/svg">
<path d="M11.5592 2.64404V3.89115H8.37022V0.0283203H11.5592V1.39506H9.73696V2.64404H11.5592ZM14.8374 1.39506H16.1114V0.0283203H12.922C12.922 0.0283203 12.922 0.714352 12.922 1.39506C13.3487 1.82173 13.5712 2.02598 14.1883 2.64308C13.8275 2.64308 12.922 2.64427 12.922 2.64427V3.89115H16.1114V2.64404L14.8374 1.39506ZM19.3576 1.39506H20.6314V0.0283203H17.4422C17.4422 0.0283203 17.4422 0.714352 17.4422 1.39506C17.8688 1.82173 18.0914 2.02598 18.7084 2.64308C18.3479 2.64308 17.4422 2.64427 17.4422 2.64427V3.89115H20.6315V2.64404L19.3576 1.39506ZM24.8319 5.72699L22.8946 26.7115L14.5008 28.9715L6.10692 26.7115L4.16992 5.72699H24.8319ZM20.9283 9.99384H14.4932H7.94445L8.25762 12.5279H14.4932H14.8435L14.4932 12.6737L8.48554 15.1759L8.6848 17.6528L14.4932 17.6716L17.6064 17.6816L17.4069 20.9843L14.4932 21.8047V21.8021L14.4693 21.8087L11.6552 21.0983L11.4844 19.0482H11.4751H8.86486H8.85569L9.19734 23.006L14.4932 24.5721V24.5692L14.5028 24.5721L19.7703 23.0345L20.4538 15.1759H14.4932H14.4785L14.4932 15.1696L20.6719 12.5279L20.9283 9.99384Z" fill="white"/>
</svg>
