<svg width="39" height="39" viewBox="0 0 39 39" fill="none" xmlns="http://www.w3.org/2000/svg">
<path d="M19.5 4.875H14.625C11.9326 4.875 9.75 7.05762 9.75 9.75C9.75 12.4424 11.9326 14.625 14.625 14.625M19.5 4.875V14.625M19.5 4.875H24.375C27.0675 4.875 29.25 7.05762 29.25 9.75C29.25 12.4424 27.0675 14.625 24.375 14.625M14.625 14.625H19.5M14.625 14.625C11.9326 14.625 9.75 16.8075 9.75 19.5C9.75 22.1925 11.9326 24.375 14.625 24.375M19.5 14.625H24.375M19.5 14.625V24.375M24.375 14.625C27.0675 14.625 29.25 16.8075 29.25 19.5C29.25 22.1925 27.0675 24.375 24.375 24.375C21.6825 24.375 19.5 22.1925 19.5 19.5C19.5 16.8075 21.6825 14.625 24.375 14.625ZM19.5 24.375H14.625M19.5 24.375V29.25C19.5 31.9425 17.3175 34.125 14.625 34.125C11.9326 34.125 9.75 31.9425 9.75 29.25C9.75 26.5575 11.9326 24.375 14.625 24.375" stroke="white" stroke-width="2" stroke-linecap="round" stroke-linejoin="round"/>
</svg>
