<svg width="30" height="30" viewBox="0 0 30 30" fill="none" xmlns="http://www.w3.org/2000/svg">
<path d="M6.36809 0.0292969H7.71762V1.36266H8.95213V0.0292969H10.3018V4.06693H8.95225V2.71482H7.71773V4.06693H6.3682V0.0292969H6.36809ZM12.0764 1.36828H10.8884V0.0292969H14.6146V1.36828H13.4261V4.06693H12.0765V1.36828H12.0764ZM15.206 0.0292969H16.6134L17.4789 1.44803L18.3437 0.0292969H19.7513V4.06693H18.4072V2.06572L17.4788 3.50127H17.4557L16.5266 2.06572V4.06693H15.206V0.0292969ZM20.423 0.0292969H21.7729V2.7324H23.6708V4.06693H20.423V0.0292969ZM4.39453 5.91357L6.32496 27.5659L14.9877 29.9706L23.6745 27.5624L25.6069 5.91352L4.39453 5.91357ZM21.5802 11.0519L21.4593 12.3982L21.4062 12.9952H21.3975H15.0008H14.9915H11.2441L11.4868 15.7143H14.9915H15.0008H20.4488H21.1645L21.0997 16.4275L20.4756 23.4189L20.4357 23.8673L15.0008 25.3737V25.3741L14.9886 25.3776L9.54879 23.8674L9.17666 19.6978H10.4054H11.8425L12.0316 21.8157L14.989 22.6145L14.9915 22.6137V22.6135L17.9535 21.8143L18.2615 18.3701H15.0008H14.9915H9.05807L8.40539 11.0519L8.34182 10.3396H14.9915H15.0008H21.6438L21.5802 11.0519Z" fill="white"/>
</svg>
