<svg width="25" height="25" viewBox="0 0 25 25" fill="none" xmlns="http://www.w3.org/2000/svg">
<g clip-path="url(#clip0_253_21)">
<path fill-rule="evenodd" clip-rule="evenodd" d="M19.16 23.0402C16.9788 23.0402 15.5687 22.0003 14.8812 20.6403L16.7937 19.5325C17.2975 20.355 17.9512 20.9589 19.11 20.9589C20.0825 20.9589 20.7037 20.4723 20.7037 19.801C20.7037 18.791 19.3562 18.3964 18.405 17.9889C16.71 17.2676 15.585 16.3614 15.585 14.4476C15.585 12.6864 16.9275 11.344 19.0263 11.344C20.5188 11.344 21.5937 11.8639 22.365 13.2227L20.5362 14.3976C20.1337 13.6763 19.6975 13.3911 19.0263 13.3911C18.3375 13.3911 17.9013 13.8276 17.9013 14.3976C17.9013 15.1026 18.3375 15.3877 19.345 15.824C21.4563 16.729 23.0537 17.44 23.0537 19.7675C23.0537 21.8825 21.3925 23.0402 19.16 23.0402ZM13.75 19.4989C13.75 21.9327 12.2512 23.219 10.17 23.219C8.28998 23.219 7.16374 22.5 6.60999 21.25H6.59126H6.58249H6.57749L8.48873 19.9139C8.85748 20.5677 9.19 21.0315 9.995 21.0315C10.7675 21.0315 11.25 20.6403 11.25 19.4666V11.25H13.75V19.4989ZM0 25H25V0H0V25Z" fill="white"/>
</g>
<defs>
<clipPath id="clip0_253_21">
<rect width="25" height="25" fill="white"/>
</clipPath>
</defs>
</svg>
