<svg width="27" height="24" viewBox="0 0 27 24" fill="none" xmlns="http://www.w3.org/2000/svg">
<path d="M13.5063 9.63667C13.9699 9.6367 14.4231 9.77287 14.8089 10.028C15.1947 10.2832 15.4959 10.646 15.6744 11.0707C15.8529 11.4954 15.9009 11.963 15.8123 12.4147C15.7236 12.8664 15.5024 13.282 15.1763 13.6091C14.8502 13.9362 14.4339 14.1603 13.9798 14.2531C13.5258 14.3459 13.0542 14.3032 12.6245 14.1305C12.1947 13.9578 11.8261 13.6628 11.5649 13.2826C11.3038 12.9023 11.1618 12.4539 11.1568 11.9938C11.1552 11.6859 11.2146 11.3807 11.3318 11.0956C11.449 10.8105 11.6216 10.5511 11.8397 10.3322C12.0579 10.1133 12.3174 9.93925 12.6033 9.81991C12.8893 9.70057 13.1961 9.63831 13.5063 9.63667ZM7.68916 21.9709C8.48069 22.4448 10.202 21.7214 12.2122 19.8507C11.5403 19.0928 10.9071 18.302 10.315 17.4812C9.30165 17.3685 8.29509 17.202 7.29967 16.9823C6.65891 19.6512 6.89763 21.4845 7.68916 21.9709ZM8.5812 14.8123L8.21685 14.1763C8.07481 14.5266 7.95316 14.8847 7.85249 15.2488C8.19172 15.3236 8.56864 15.386 8.95812 15.4483L8.5812 14.8123ZM16.798 13.8645L17.8157 11.9938L16.798 10.1231C16.4211 9.46207 16.0191 8.87592 15.6547 8.28977C14.9763 8.25235 14.2601 8.25235 13.5063 8.25235C12.7524 8.25235 12.0363 8.25235 11.3578 8.25235C10.9935 8.83851 10.5914 9.42466 10.2145 10.0856L9.19683 11.9938L10.2145 13.8645C10.5914 14.5255 10.9935 15.1116 11.3578 15.6978C12.0363 15.6978 12.7524 15.6978 13.5063 15.6978C14.2601 15.6978 14.9763 15.6978 15.6547 15.6978C16.0191 15.1116 16.4211 14.5255 16.798 13.8645ZM13.5063 5.48371C13.2676 5.75808 13.0163 6.04492 12.765 6.38164H14.2476C13.9963 6.04492 13.745 5.75808 13.5063 5.48371ZM13.5063 18.5038C13.745 18.2295 13.9963 17.9426 14.2476 17.6059H12.765C13.0163 17.9426 13.2676 18.2295 13.5063 18.5038ZM19.3108 2.01666C18.5319 1.54275 16.798 2.26609 14.8004 4.1368C15.4723 4.89468 16.1054 5.68553 16.6975 6.50636C17.71 6.60254 18.7166 6.75241 19.7129 6.95533C20.3537 4.28645 20.1149 2.45316 19.3108 1.96678M18.4314 9.12535L18.7957 9.76139C18.9377 9.41109 19.0594 9.05299 19.1601 8.68885C18.8208 8.61402 18.4439 8.55166 18.0544 8.48931L18.4314 9.12535ZM20.2531 0.395384C22.1 1.44298 22.3011 4.19915 21.5095 7.41677C24.7008 8.35212 27 9.91104 27 12.0062C27 14.1014 24.7008 15.6603 21.5095 16.5957C22.2885 19.8133 22.0875 22.5695 20.2531 23.6171C18.4188 24.6647 15.9186 23.4674 13.5063 21.1852C11.094 23.4674 8.59376 24.6647 6.74686 23.6171C4.89995 22.5695 4.71149 19.8757 5.49046 16.5957C2.29921 15.6603 0 14.1014 0 12.0062C0 9.91104 2.29921 8.33965 5.49046 7.4043C4.71149 4.18668 4.91252 1.43051 6.74686 0.382912C8.5812 -0.664683 11.094 0.532569 13.5063 2.81483C15.9186 0.532569 18.4188 -0.664683 20.2531 0.382912M19.8888 11.9938C20.3251 12.9118 20.711 13.8527 21.0447 14.8123C23.6831 14.0266 25.1657 12.9042 25.1657 11.9938C25.1657 11.0834 23.6454 9.96093 21.0447 9.17523C20.711 10.1348 20.3251 11.0757 19.8888 11.9938ZM7.12378 11.9938C6.68743 11.0757 6.30157 10.1348 5.96789 9.17523C3.32946 9.96093 1.84691 11.0834 1.84691 11.9938C1.84691 12.9042 3.36715 14.0266 5.96789 14.8123C6.30157 13.8527 6.68743 12.9118 7.12378 11.9938ZM18.4314 14.8123L18.0544 15.4483C18.4439 15.4483 18.8208 15.3236 19.1601 15.2488C19.0594 14.8847 18.9377 14.5266 18.7957 14.1763L18.4314 14.8123ZM14.7627 19.8507C16.7604 21.7214 18.5319 22.4448 19.2732 21.9709C20.0144 21.497 20.316 19.7011 19.6752 16.9823C18.6789 17.1852 17.6723 17.3351 16.6598 17.4313C16.0691 18.2691 15.4359 19.0766 14.7627 19.8507ZM8.5812 9.17523L8.95812 8.53919C8.56864 8.53919 8.19172 8.66391 7.85249 8.73874C7.95316 9.10288 8.07481 9.46098 8.21685 9.81127L8.5812 9.17523ZM12.2499 4.1368C10.2145 2.26609 8.48069 1.54275 7.68916 2.01666C6.89763 2.49057 6.65891 4.28645 7.29967 7.00521C8.29601 6.80229 9.30257 6.65242 10.315 6.55624C10.918 5.71753 11.5638 4.90999 12.2499 4.1368Z" fill="white"/>
</svg>
