<svg width="34" height="34" viewBox="0 0 34 34" fill="none" xmlns="http://www.w3.org/2000/svg">
<g clip-path="url(#clip0_253_39)">
<path d="M29.2529 18.9083C29.2944 18.9072 29.3432 18.9061 29.3932 18.9061C30.2793 18.9061 31.1176 19.1123 31.8614 19.4799L31.8284 19.465C32.5063 19.7954 33.063 20.2842 33.4657 20.8834L33.4753 20.8983C33.793 21.3616 33.9821 21.9343 33.9821 22.5505C33.9821 22.5951 33.981 22.6398 33.9789 22.6833V22.6769C33.946 23.2921 33.6665 23.8351 33.2373 24.2154L33.2352 24.2176C33.0004 24.4481 32.7167 24.6288 32.4011 24.7435L32.3852 24.7488C32.2081 24.7842 32.1107 24.7577 32.093 24.6691C32.0753 24.5806 32.155 24.4832 32.332 24.3769C32.8123 24.0858 33.1597 23.6162 33.2862 23.0626L33.2894 23.0488C33.2925 23.0042 33.2947 22.9521 33.2947 22.899C33.2947 22.5686 33.216 22.2562 33.0769 21.9799L33.0822 21.9916C32.8516 21.5103 32.5074 21.1151 32.0834 20.8293L32.0728 20.8229C31.4385 20.4149 30.6777 20.1471 29.8596 20.0802L29.8426 20.0791C29.5642 20.0377 29.2434 20.0143 28.9161 20.0143C28.065 20.0143 27.2522 20.1748 26.5042 20.4669L26.5489 20.451C26.7029 20.8112 26.7996 21.2288 26.8134 21.6665V21.6718C26.7964 22.5696 26.314 23.3506 25.5969 23.7862L25.5852 23.7926C25.2558 24.0263 24.8797 24.2314 24.4791 24.3908L24.4419 24.4035C24.1986 24.5225 23.9128 24.5916 23.611 24.5916C23.576 24.5916 23.542 24.5905 23.508 24.5884H23.5133C22.8411 24.4474 22.6817 23.863 23.0352 22.8353C23.1892 22.3879 23.4049 22.0001 23.678 21.6591L23.6716 21.6665C24.0212 21.2096 24.4047 20.8091 24.8287 20.4542L24.8404 20.4446L24.7362 20.2895C24.5418 19.958 24.3633 19.5723 24.2199 19.1696L24.205 19.1208C24.0987 18.7666 24.0102 18.4305 23.9394 18.1124L23.8862 17.7406L23.355 18.7489C22.8946 19.5989 22.4519 20.3423 22.0269 20.9791L21.8675 21.2447C22.046 21.6782 22.1777 22.1808 22.2372 22.7056L22.2394 22.7322C22.2436 22.7821 22.2457 22.8416 22.2457 22.9011C22.2457 23.7065 21.8484 24.4184 21.2385 24.8529L21.231 24.8583C20.9399 25.0378 20.5925 25.2238 20.2323 25.3895L20.1685 25.4161C19.7935 25.5786 19.3589 25.6849 18.9031 25.7083H18.8935C18.8585 25.7104 18.817 25.7125 18.7756 25.7125C18.51 25.7125 18.2582 25.6519 18.0329 25.5446L18.0435 25.5489C17.9086 25.4331 17.8236 25.2631 17.8236 25.0729C17.8236 24.9762 17.8459 24.8838 17.8852 24.8019L17.8831 24.8062C18.3081 24.2101 18.7267 23.6916 19.1719 23.1965L19.1581 23.2124L20.3269 21.726L20.1154 21.2479C19.9454 20.9355 19.7829 20.5668 19.6522 20.1843L19.6373 20.1333C19.531 19.7791 19.4425 19.443 19.3717 19.125L19.3185 18.7531L18.7873 20.0281C18.363 21.0191 17.9734 21.8687 17.6185 22.5771C17.0894 23.6396 16.6467 24.4541 16.2904 25.0208L16.1842 25.1802C15.7599 25.8524 15.3526 26.1885 14.9623 26.1885C14.572 26.1885 14.3074 25.9406 14.1686 25.4448C14.0666 25.0793 14.0071 24.6596 14.0071 24.2261C14.0071 24.1878 14.0071 24.1496 14.0082 24.1113V24.1166L14.1144 23.3729V23.426C13.8311 24.0982 13.5478 24.7176 13.2644 25.2843C13.0764 25.6519 12.883 25.9654 12.6662 26.2608L12.68 26.2406C12.4612 26.4701 12.153 26.6124 11.812 26.6124C11.8088 26.6124 11.8067 26.6124 11.8035 26.6124C11.7812 26.6146 11.7557 26.6146 11.7302 26.6146C11.4614 26.6146 11.217 26.5126 11.0321 26.3458L11.0332 26.3468C10.6624 25.9664 10.3872 25.4915 10.2448 24.9613L10.2395 24.939C10.0652 24.4556 9.96536 23.8967 9.96536 23.3144C9.96536 23.239 9.96749 23.1646 9.97067 23.0913V23.1019C10.0546 22.2562 10.2235 21.4816 10.4711 20.7432L10.4488 20.8186L8.53736 21.9343V21.9874C8.81467 22.5633 8.97723 23.239 8.97723 23.953C8.97723 24.0837 8.97192 24.2133 8.9613 24.3408L8.96236 24.3238C8.90605 25.4182 8.55648 26.4201 7.9923 27.2669L8.00611 27.2457C7.4143 28.1849 6.56111 28.9106 5.54748 29.3303L5.51242 29.3431C4.94186 29.5991 4.27461 29.7489 3.57336 29.7489C3.12923 29.7489 2.69786 29.6894 2.28986 29.5768L2.32386 29.5843C1.98598 29.4706 1.70973 29.2453 1.53442 28.9542L1.53123 28.9478C1.28367 28.5887 1.12748 28.1499 1.10305 27.6771V27.6707C1.09136 27.5634 1.08498 27.4391 1.08498 27.3126C1.08498 26.7676 1.2093 26.2512 1.43136 25.7911L1.4218 25.8124C2.03167 24.7722 2.8753 23.9296 3.88255 23.3368L3.91442 23.3198C4.62736 22.8257 5.44655 22.3465 6.30186 21.9289L6.41448 21.879L6.68011 21.7196C6.36136 21.4717 5.77698 21.0467 4.92698 20.4446C3.79117 19.6839 2.80411 18.9157 1.87336 18.0848L1.89992 18.1082C0.999984 17.3336 0.344422 16.2988 0.0501094 15.1204L0.0416094 15.0801C0.0139844 14.9164 -0.00195312 14.7284 -0.00195312 14.5371C-0.00195312 13.9379 0.152109 13.3748 0.421984 12.8849L0.413484 12.903C1.00848 11.6238 1.83298 10.5453 2.84448 9.67831L2.85723 9.66769C3.95161 8.63388 5.19048 7.73394 6.53561 7.00506L6.62805 6.95938C7.82973 6.26556 9.2333 5.62063 10.6964 5.10319L10.877 5.04794C12.2359 4.55069 13.8052 4.25956 15.4415 4.25425H15.4436C15.518 4.25213 15.6062 4.25 15.6944 4.25C17.0129 4.25 18.2603 4.55494 19.3695 5.09788L19.3207 5.07556C20.2769 5.51119 20.993 6.33144 21.2799 7.33444L21.2863 7.35994C21.3745 7.70206 21.4244 8.09519 21.4244 8.5C21.4244 9.1715 21.2852 9.81113 21.0355 10.3913L21.0472 10.3604C20.5925 11.4623 19.9454 12.4004 19.1379 13.1729L19.1347 13.1761C18.3166 13.9868 17.3359 14.6349 16.2469 15.0673L16.1884 15.0875C15.0473 15.5773 13.7224 15.8854 12.3315 15.9364L12.3114 15.9375C12.1074 15.9609 11.8715 15.9736 11.6324 15.9736C11.0034 15.9736 10.3967 15.8833 9.82299 15.7144L9.86867 15.7261C9.35548 15.5624 8.91242 15.3085 8.5363 14.9791L8.54055 14.9823C8.27705 14.7677 8.06242 14.5031 7.90942 14.2024L7.90305 14.1886C7.7968 13.9053 7.78794 13.7371 7.87648 13.6839C7.96503 13.6308 8.02701 13.622 8.06242 13.6574L8.32805 13.923C8.62448 14.1982 8.9783 14.4149 9.3693 14.5531L9.39055 14.5594C9.92817 14.7464 10.5487 14.8548 11.1936 14.8548C11.4008 14.8548 11.6048 14.8442 11.8056 14.8219L11.7812 14.824C13.5003 14.6211 15.0505 14.0346 16.3882 13.1527L16.3489 13.1771C17.4794 12.5046 18.3942 11.5802 19.038 10.4784L19.0572 10.4423C19.377 9.97263 19.5682 9.3925 19.5682 8.76775C19.5682 8.38419 19.496 8.01656 19.3642 7.67869L19.3717 7.69888C18.9743 7.07094 18.3315 6.62894 17.5814 6.50675L17.5665 6.50463C16.9842 6.36119 16.3149 6.27831 15.6274 6.27831C15.0739 6.27831 14.532 6.33144 14.0082 6.43344L14.0613 6.42494C12.2689 6.74794 10.6666 7.3015 9.18867 8.06225L9.28536 8.01656C4.93053 10.2124 2.68192 12.461 2.53955 14.7624V14.8144C2.53955 15.742 2.90398 16.5846 3.49792 17.2072L3.49686 17.2061C4.17367 17.9584 4.92167 18.6224 5.73873 19.1962L5.78017 19.2238C6.52498 19.7806 7.18373 20.3554 7.7968 20.9759L7.79786 20.978L7.90411 21.0843L11.3041 19.2259C11.6919 18.6649 12.1584 18.1911 12.6939 17.8086L12.7109 17.7969C13.1359 17.4399 13.6756 17.2072 14.2674 17.1604L14.277 17.1594C14.2982 17.1573 14.3227 17.1573 14.3482 17.1573C14.7445 17.1573 15.0845 17.3963 15.2311 17.7384L15.2332 17.7448C15.3448 17.9945 15.4096 18.2867 15.4096 18.5938C15.4096 18.6873 15.4032 18.7797 15.3915 18.8711L15.3926 18.8604L15.2895 19.3843L15.4489 19.278C15.5594 19.1941 15.6986 19.1441 15.8495 19.1441C15.9451 19.1441 16.0354 19.1643 16.1172 19.2004L16.113 19.1983C16.317 19.2514 16.4647 19.4342 16.4647 19.6509C16.4647 19.6881 16.4604 19.7243 16.4519 19.7593L16.453 19.7561L16.2936 20.3405C15.9749 21.6148 15.7627 22.5353 15.6572 23.1019C15.604 23.2858 15.5743 23.4972 15.5743 23.7161C15.5743 23.7618 15.5754 23.8064 15.5785 23.851V23.8446C15.5963 24.0571 15.6228 24.1634 15.6582 24.1634C15.6937 24.1634 15.7641 24.0571 15.8697 23.8446L16.029 23.4728C16.0645 23.4728 16.0645 23.4905 16.029 23.5259L16.6134 22.304C17.9947 19.2596 18.7381 17.5596 18.8436 17.204L19.1624 16.1957C19.1978 16.1249 19.3394 16.0544 19.5874 15.9843C19.8392 15.9163 20.1271 15.8769 20.4246 15.8769C20.449 15.8769 20.4735 15.8769 20.4969 15.878H20.4937C20.9895 15.878 21.2374 16.002 21.2374 16.2499L21.1843 16.5155C21.0653 16.8428 20.9474 17.2518 20.856 17.6704L20.8443 17.7374C20.823 17.8744 20.8103 18.0317 20.8103 18.1932C20.8103 18.4078 20.8315 18.6171 20.873 18.8201L20.8698 18.7999L20.9229 19.0113C21.0313 19.4544 21.196 19.8433 21.4117 20.1981L21.401 20.1801C21.8253 19.4724 22.2326 18.7468 22.6229 18.003C22.931 17.4898 23.2179 16.8948 23.4485 16.2722L23.4729 16.1978C23.5526 15.7973 23.644 15.4594 23.7555 15.13L23.7385 15.1895C23.774 15.0833 23.9252 15.0036 24.1922 14.9504C24.4451 14.8994 24.7352 14.8708 25.0316 14.8708H25.0699H25.0677C25.5636 14.8708 25.8281 14.9947 25.8614 15.2426L25.7552 15.4541C25.6287 15.8111 25.5182 16.2403 25.4439 16.6813L25.4375 16.7291C25.4279 16.8321 25.4215 16.9511 25.4215 17.0723C25.4215 17.3262 25.447 17.5748 25.4949 17.8149L25.4906 17.7905V18.0019C25.6128 18.4652 25.7945 18.8721 26.0325 19.2408L26.0219 19.2238L26.1812 19.5957C27.0684 19.1601 28.1118 18.9051 29.2147 18.9051H29.2561H29.254L29.2529 18.9083ZM6.47398 26.6146C7.21242 25.8517 7.66823 24.8104 7.66823 23.6629C7.66823 23.2199 7.60023 22.7928 7.47486 22.3911L7.48336 22.4209L6.63336 22.9521C5.76636 23.4462 5.01623 23.9976 4.3373 24.6245L4.3458 24.6171C3.83048 25.0909 3.45011 25.704 3.26311 26.3957L3.25673 26.4223C3.09736 27.0775 3.17705 27.5025 3.4958 27.6973C3.69023 27.7865 3.91867 27.8386 4.15773 27.8386C4.41911 27.8386 4.66667 27.7769 4.88448 27.6664L4.87492 27.6707C5.50605 27.4412 6.04048 27.0768 6.46548 26.6103L6.46867 26.6071L6.47398 26.6146ZM13.5895 21.7228C13.7666 21.2624 13.9614 20.7134 14.1739 20.0759C14.4573 19.2259 14.5547 18.7305 14.4661 18.5895C14.3776 18.4485 14.2093 18.4308 13.9614 18.5364C13.666 18.6798 13.4185 18.8764 13.2209 19.1176L13.2177 19.1218C12.9967 19.4013 12.7863 19.7136 12.5993 20.0419L12.5802 20.0781C12.3655 20.4298 12.1839 20.8346 12.0574 21.2638L12.0479 21.2999C11.8428 21.8556 11.7238 22.4984 11.7238 23.1678C11.7238 23.2581 11.7259 23.3474 11.7302 23.4366V23.4239C11.7656 24.1315 11.8789 24.5122 12.0702 24.5661C12.2614 24.6199 12.4828 24.3631 12.7342 23.7958C12.9775 23.3569 13.1943 22.8469 13.3558 22.3125L13.3707 22.2551C13.4762 22.0044 13.5485 21.8269 13.5874 21.7228H13.5895ZM19.4822 24.5384C20.2185 24.208 20.737 23.5121 20.8092 22.6886L20.8103 22.6801V22.627L20.2259 23.3708L19.1645 24.5395C19.1485 24.5523 19.1379 24.5714 19.1379 24.5926C19.1379 24.6139 19.1485 24.633 19.1634 24.6458C19.1974 24.6805 19.3037 24.645 19.4822 24.5395V24.5384ZM24.0499 23.5291C24.8531 23.2996 25.4311 22.5718 25.4311 21.7101C25.4311 21.6963 25.4311 21.6824 25.4311 21.6686V21.6708C25.4205 21.4583 25.3822 21.2585 25.3195 21.0694L25.3238 21.0853C24.9105 21.4529 24.5715 21.8928 24.3261 22.389L24.3144 22.4134C23.995 23.0502 23.9057 23.4214 24.0467 23.5269L24.0499 23.5291Z" fill="white"/>
</g>
<defs>
<clipPath id="clip0_253_39">
<rect width="34" height="34" fill="white"/>
</clipPath>
</defs>
</svg>
