<svg width="35" height="35" viewBox="0 0 35 35" fill="none" xmlns="http://www.w3.org/2000/svg">
<path d="M9.84375 14.9844C10.8646 10.901 13.4167 8.85938 17.5 8.85938C23.625 8.85938 24.3906 13.4531 27.4531 14.2187C29.4948 14.7292 31.2813 13.9635 32.8125 11.9219C31.7917 16.0052 29.2396 18.0469 25.1562 18.0469C19.0313 18.0469 18.2656 13.4531 15.2031 12.6875C13.1615 12.1771 11.375 12.9427 9.84375 14.9844ZM2.1875 24.1719C3.20833 20.0885 5.76042 18.0469 9.84375 18.0469C15.9687 18.0469 16.7344 22.6406 19.7969 23.4062C21.8385 23.9167 23.625 23.151 25.1562 21.1094C24.1354 25.1927 21.5833 27.2344 17.5 27.2344C11.375 27.2344 10.6094 22.6406 7.54688 21.875C5.50521 21.3646 3.71875 22.1302 2.1875 24.1719Z" fill="white"/>
</svg>
