<svg width="60" height="60" viewBox="0 0 60 60" fill="none" xmlns="http://www.w3.org/2000/svg">
<path d="M19.374 28.3427C19.374 27.2663 18.3274 26.1232 16.5161 26.1232C14.4822 26.1232 12.2479 27.6152 11.9065 30.5918C11.5576 33.5982 13.4282 34.9343 15.3136 34.9343C17.1991 34.9343 18.1863 34.1994 19.1958 33.2196C18.3274 32.1284 17.2065 32.6332 16.9912 32.7445C16.7537 32.8633 16.4493 33.0266 15.8258 33.0266C15.0984 33.0266 14.3561 32.7 14.3561 31.3416C19.0177 30.8813 19.374 29.419 19.374 28.3427ZM17.0654 28.5208C17.0358 28.8549 16.9021 29.4264 14.5416 29.7456C15.039 27.979 15.9891 27.8453 16.4271 27.8453C16.8353 27.8453 17.0951 28.1645 17.0654 28.5208ZM9.16739 28.8103C9.16739 28.8103 8.16529 31.9577 8.08363 32.2175C8.05394 31.9503 7.31906 26.3014 7.31906 26.3014C5.61178 26.3014 4.69875 27.5187 4.21626 28.8029C4.21626 28.8029 2.99889 31.9577 2.89496 32.2249C2.88754 31.9799 2.70939 28.84 2.70939 28.84C2.60547 27.2663 1.16541 26.3088 0 26.3088L1.41037 34.8675C3.19931 34.8601 4.1643 33.6501 4.66906 32.3659C4.66906 32.3659 5.74539 29.5823 5.78993 29.4561C5.79735 29.5749 6.56192 34.8675 6.56192 34.8675C8.35828 34.8675 9.32327 33.7318 9.84288 32.4921L12.3593 26.3088C10.5852 26.3088 9.64988 27.5187 9.16739 28.8103ZM25.9656 26.1084C24.8596 26.1084 24.0134 26.7096 23.3008 27.593V27.5855L23.9391 22.4414C22.4694 22.4414 21.2743 23.7182 21.0442 25.6184L19.9307 34.8007C20.7769 34.8007 21.6751 34.5557 22.1576 33.9322C22.5881 34.4889 23.2339 34.9343 24.1915 34.9343C26.6708 34.9343 28.3707 32.0542 28.3707 29.3522C28.3558 26.8878 27.1607 26.1084 25.9656 26.1084ZM25.7355 30.525C25.4757 32.0319 24.6369 33.0563 23.8278 33.0563C23.0113 33.0563 22.6624 32.6926 22.6624 32.6926C22.8183 31.3713 22.9148 30.5622 23.2117 29.8644C23.5086 29.1666 24.2138 28.0532 24.9487 28.0532C25.6687 28.0532 25.9953 29.0107 25.7355 30.525ZM34.5614 26.3088H32.8319L32.8393 26.2197C32.9581 25.0914 33.2253 24.4976 34.1086 24.4011C34.7099 24.3417 34.9771 24.0299 35.0439 23.6885C35.0959 23.4212 35.2592 22.4934 35.2592 22.4934C31.7852 22.4711 30.6941 23.9705 30.412 26.2568L30.4046 26.3088H30.3674C29.8033 26.3088 29.1798 26.9472 29.0758 27.7563L29.0387 28.0532H30.1967L29.2243 36.0849L28.9274 37.5249C28.9645 37.5249 29.009 37.5323 29.0461 37.5323C30.6718 37.473 31.711 36.1888 31.9411 34.3256L32.6983 28.0532H33.2401C33.7746 28.0532 34.3981 27.5187 34.5095 26.628L34.5614 26.3088ZM43.5581 26.1603C41.5613 26.1603 39.6759 27.6301 39.0969 29.9386C38.5179 32.2472 39.3938 34.9788 42.3333 34.9788C45.2654 34.9788 46.9578 32.1358 46.9578 29.7679C46.9578 27.4148 45.3619 26.1603 43.5581 26.1603ZM44.3672 30.4508C44.2633 31.4974 43.803 33.086 42.5411 33.086C41.2718 33.086 41.45 31.2302 41.5761 30.3469C41.7098 29.4042 42.2368 28.0606 43.3725 28.0606C44.3895 28.0606 44.486 29.2706 44.3672 30.4508ZM56.823 28.8103C56.823 28.8103 55.8209 31.9577 55.7392 32.2175C55.7095 31.9503 54.9746 26.3014 54.9746 26.3014C53.2674 26.3014 52.3543 27.5187 51.8718 28.8029C51.8718 28.8029 50.6545 31.9577 50.5505 32.2249C50.5431 31.9799 50.365 28.84 50.365 28.84C50.261 27.2663 48.821 26.3088 47.6556 26.3088L49.0585 34.8675C50.8475 34.8601 51.8124 33.6501 52.3172 32.3659C52.3172 32.3659 53.3935 29.5823 53.4307 29.4561C53.4381 29.5749 54.2026 34.8675 54.2026 34.8675C55.999 34.8675 56.964 33.7318 57.4836 32.4921L60 26.3088C58.2333 26.3088 57.298 27.5187 56.823 28.8103ZM36.1945 22.4934L34.7396 34.2291L34.4427 35.6766C34.4798 35.6766 34.5243 35.684 34.5614 35.684C36.1277 35.6617 37.2411 34.2885 37.449 32.5589L38.2878 25.8263C38.5401 23.7701 37.3154 22.4934 36.1945 22.4934Z" fill="white"/>
</svg>
